<?xml version="1.0" standalone="yes"?>
<svg xmlns="http://www.w3.org/2000/svg" width="432" height="432">
<path style="fill:#020202; stroke:none;" d="M0 0L0 432L432 432L432 0L0 0z"/>
<path style="fill:#f96864; stroke:none;" d="M228 200C234.611 196.179 240.314 187.626 248 186.228C259.608 184.118 273.199 186 285 186C288.316 186 295.632 187.351 297.972 184.397C301.124 180.418 299 168.897 299 164C299 157.402 302.127 139.849 297.972 134.603C295.632 131.649 288.315 133 285 133L249 133L226 133C223.383 133.001 218.891 132.25 217.028 134.603C214.954 137.221 216 142.878 216 146C216 155.812 212.278 174.892 216.603 183.682C218.244 187.016 223.085 185.413 225.682 187.603C228.998 190.4 228 196.147 228 200z"/>
<path style="fill:#e7dccd; stroke:none;" d="M129 195C136.616 199.199 133 219.163 133 227C133 229.98 131.927 235.853 134.603 237.972C140.127 242.347 159.026 239 166 239L252 239C259.348 239 279.596 242.566 285.397 237.972C288.216 235.739 287 229.151 287 226L287 193L282 193L282 221C282 224.633 282.814 229.758 279.682 232.397C274.234 236.987 257.866 234 251 234L172 234C165.251 234 145.542 237.336 140.603 232.397C136.636 228.429 139 215.269 139 210L139 145L210 144L210 139L153 139L134.028 140.603L133 159L129.461 177.066L132.539 185.029L129 195z"/>
<path style="fill:#020202; stroke:none;" d="M244.603 143.083C242.587 144.444 243.015 147.928 243.001 150C242.967 154.881 240.329 172.956 244.603 175.928C249.121 179.07 265.184 166.59 268.852 163.641C277.518 156.673 258.007 148.459 253 145.428C250.894 144.154 247.139 141.37 244.603 143.083z"/>
<path style="fill:#64b2f0; stroke:none;" d="M142 144L142 145L210 145L189 144L142 144M139 145L140 146L139 145M249 150L251 152L249 150M145 151L145 228L151 228C151.957 217.126 160.394 210.486 171 210C170.96 196.005 157.544 181.22 164.688 167.001C172.63 151.196 200.43 154.013 203.671 172C206.193 185.999 195.047 196.792 195 210C206.23 210.239 214.306 216.701 216 228L275 228L275 192C266.545 192 252.443 189.31 245 193.728C240.57 196.357 229.597 210.422 224.318 208.654C220.176 207.268 222 195.412 222 192C204.248 191.424 210 163.222 210 151L145 151z"/>
<path style="fill:#e7dccd; stroke:none;" d="M249 151L249 168L263 160L263 159L249 151z"/>
<path style="fill:#64b2f0; stroke:none;" d="M252 152L253 153L252 152M255 154L256 155L255 154M257 155L258 156L257 155M258 156L259 157L258 156M260 157L261 158L260 157M263 159L264 160L263 159M262 160L263 161L262 160M260 161L261 162L260 161M169 180C178.771 179.999 189.359 172.946 198 177C196.409 165.251 180.769 156.075 171.514 167.214C168.561 170.768 169.003 175.678 169 180M257 163L258 164L257 163M255 164L256 165L255 164M254 165L255 166L254 165M252 166L253 167L252 166M249 168L250 169L249 168M130 174L131 175L130 174M130 180L131 181L130 180M132 181L133 182L132 181z"/>
<path style="fill:#f96864; stroke:none;" d="M191 181L192 182L191 181M189 182L190 183L189 182z"/>
<path style="fill:#e7dccd; stroke:none;" d="M172 187C172.058 189.699 172.04 192.49 173.318 194.957C177.625 203.272 190.132 202.227 193.772 193.96C195.105 190.931 196.258 183.986 191.852 182.813C186.958 181.51 177.346 186.321 172 187z"/>
<path style="fill:#f96864; stroke:none;" d="M187 183L188 184L187 183M184 184L185 185L184 184M180.667 185.333L181.333 185.667L180.667 185.333M172 186L172 187L176 187L172 186M171 187L171 191L172 191L171 187z"/>
<path style="fill:#64b2f0; stroke:none;" d="M130 189L131 190L130 189z"/>
<path style="fill:#f96864; stroke:none;" d="M194.333 192.667L194.667 193.333L194.333 192.667z"/>
<path style="fill:#64b2f0; stroke:none;" d="M281 192L281 232L282 232L282 193L287 193L281 192z"/>
<path style="fill:#f96864; stroke:none;" d="M172 193L173 194L172 193z"/>
<path style="fill:#64b2f0; stroke:none;" d="M131 195L132 196L131 195z"/>
<path style="fill:#f96864; stroke:none;" d="M193 195L194 196L193 195z"/>
<path style="fill:#64b2f0; stroke:none;" d="M132 196L133 197L132 196z"/>
<path style="fill:#f96864; stroke:none;" d="M192 196L193 197L192 196M190 198L191 199L190 198M177 199L178 200L177 199M189 199L190 200L189 199M179 200L180 201L179 200M186.667 200.333L187.333 200.667L186.667 200.333M177 206L177 213L178 213L179 206L177 206M187.667 206.333L188.333 206.667L187.667 206.333z"/>
<path style="fill:#e7dccd; stroke:none;" d="M178 207C178.128 217.83 188.657 217.532 189 207L178 207z"/>
<path style="fill:#f96864; stroke:none;" d="M188 213L189 214L188 213M187 214L188 215L187 214M180 215L181 216L180 215M185 215L186 216L185 215M165.667 216.333L166.333 216.667L165.667 216.333z"/>
<path style="fill:#e7dccd; stroke:none;" d="M157 227L209 227C206.956 208.658 192.895 221.54 184 221.93C173.413 222.393 161.808 208.594 157 227z"/>
<path style="fill:#f96864; stroke:none;" d="M172 216L173 217L172 216M200.667 216.333L201.333 216.667L200.667 216.333M163 217L164 218L163 217M173 217L174 218L173 217M193 217L194 218L193 217M203 217L204 218L203 217M161 218L162 219L161 218M192 218L193 219L192 218M205 218L206 219L205 218M160 219L161 220L160 219M175 219L176 220L175 219M191 219L192 220L191 219M206 219L207 220L206 219M159 220L160 221L159 220M176 220L177 221L176 220M189 220L190 221L189 220M207 220L208 221L207 220M158 221L159 222L158 221M178.667 221.333L179.333 221.667L178.667 221.333M187.667 221.333L188.333 221.667L187.667 221.333M208 222L209 223L208 222M157.333 223.667L157.667 224.333L157.333 223.667M209 224C206.146 228.402 199.741 227 195 227L157 227L157 228L210 228L209 224z"/>
<path style="fill:#64b2f0; stroke:none;" d="M139 232L140 233L139 232M140 233L141 234L140 233M279 233L280 234L279 233M133 238L134 239L133 238M286 238L287 239L286 238M134 239L134 240L286 240C274.068 234.993 252.991 239 240 239L134 239z"/>
<path style="fill:#f96864; stroke:none;" d="M153 257L154 258L153 257M215.667 257.333L216.333 257.667L215.667 257.333M277.667 257.333L278.333 257.667L277.667 257.333M149 258L150 259L149 258z"/>
<path style="fill:#e7dccd; stroke:none;" d="M150.105 258.743C140.233 262.875 145.646 281.788 156.956 277.257C166.934 273.26 161.622 253.923 150.105 258.743z"/>
<path style="fill:#f96864; stroke:none;" d="M157 258L158 259L157 258M212 258L213 259L212 258z"/>
<path style="fill:#e7dccd; stroke:none;" d="M213.019 258.746C202.476 262.782 207.708 281.569 218.981 277.254C229.524 273.218 224.292 254.431 213.019 258.746z"/>
<path style="fill:#f96864; stroke:none;" d="M219 258L220 259L219 258M274 258L275 259L274 258z"/>
<path style="fill:#e7dccd; stroke:none;" d="M275.044 258.743C265.095 262.729 270.31 282.132 281.895 276.99C291.72 272.629 286.23 254.262 275.044 258.743z"/>
<path style="fill:#f96864; stroke:none;" d="M282 258L283 259L282 258M210 259L211 260L210 259M221 259L222 260L221 259M283 259L284 260L283 259M209 260L210 261L209 260M222 260L223 261L222 260M146 261L147 262L146 261M208 261L209 262L208 261M223 261L224 262L223 261M285 261L286 262L285 261M161 262L162 263L161 262M270 262L271 263L270 262M145 263L146 264L145 263M207.333 263.667L207.667 264.333L207.333 263.667M224.333 263.667L224.667 264.333L224.333 263.667M286 263L287 264L286 263M162 265L162 271L163 271L162 265M269 265L269 271L270 271L269 265M207 271L208 272L207 271M224 271L225 272L224 271M145 272L146 273L145 272M286 272L287 273L286 272M161 273L162 274L161 273M270 273L271 274L270 273M146 274L147 275L146 274M285 274L286 275L285 274M209 275L210 276L209 275M222 275L223 276L222 275M148 276L149 277L148 276M210 276L211 277L210 276M221 276L222 277L221 276M283 276L284 277L283 276M157 277L158 278L157 277M212 277L213 278L212 277M219 277L220 278L219 277M274 277L275 278L274 277M281 277L282 278L281 277M133 299L174 299C173.806 277.277 133.193 277.668 133 299z"/>
<path style="fill:#64b2f0; stroke:none;" d="M195 299L237 299C236.015 277.506 195.985 277.506 195 299z"/>
<path style="fill:#41ca72; stroke:none;" d="M258 299L299 299C298.806 277.549 258.062 277.284 258 299z"/>
</svg>
